<!DOCTYPE svg PUBLIC "-//W3C//DTD SVG 1.1//EN" "http://www.w3.org/Graphics/SVG/1.1/DTD/svg11.dtd">
<!-- Uploaded to: SVG Repo, www.svgrepo.com, Transformed by: SVG Repo Mixer Tools -->
<svg version="1.1" id="Uploaded to svgrepo.com" xmlns="http://www.w3.org/2000/svg" xmlns:xlink="http://www.w3.org/1999/xlink" width="800px" height="800px" viewBox="0 0 32.00 32.00" xml:space="preserve" fill="#000000" stroke="#000000" stroke-width="0.8320000000000001" transform="rotate(0)">
<g id="SVGRepo_bgCarrier" stroke-width="0"/>
<g id="SVGRepo_tracerCarrier" stroke-linecap="round" stroke-linejoin="round" stroke="#CCCCCC" stroke-width="0.064"/>
<g id="SVGRepo_iconCarrier"> <style type="text/css"> .feather_een{fill:#0B1719;} </style> <path class="feather_een" d="M18.757,20.929L16.971,22l1.785,1.071c0.237,0.142,0.314,0.449,0.172,0.686 C18.835,23.914,18.669,24,18.5,24c-0.088,0-0.177-0.023-0.257-0.071L16,22.583l-2.243,1.346C13.677,23.977,13.588,24,13.5,24 c-0.169,0-0.335-0.086-0.429-0.243c-0.143-0.237-0.065-0.544,0.172-0.686L15.029,22l-1.785-1.071 c-0.237-0.142-0.314-0.449-0.172-0.686c0.144-0.237,0.451-0.312,0.686-0.171L16,21.417l2.243-1.346 c0.235-0.141,0.543-0.066,0.686,0.171C19.071,20.479,18.994,20.787,18.757,20.929z M18.929,25.243 c-0.143-0.237-0.45-0.312-0.686-0.171L16,26.417l-2.243-1.346c-0.234-0.141-0.542-0.066-0.686,0.171 c-0.143,0.237-0.065,0.544,0.172,0.686L15.029,27l-1.785,1.071c-0.237,0.142-0.314,0.449-0.172,0.686 C13.165,28.914,13.331,29,13.5,29c0.088,0,0.177-0.023,0.257-0.071L16,27.583l2.243,1.346C18.323,28.977,18.412,29,18.5,29 c0.169,0,0.335-0.086,0.429-0.243c0.143-0.237,0.065-0.544-0.172-0.686L16.971,27l1.785-1.071 C18.994,25.787,19.071,25.479,18.929,25.243z M29,8v9.021c0,1.708-0.398,3.393-1.162,4.921l-1.733,3.464 C26.036,25.545,26,25.698,26,25.853V28c0,1.657-1.343,3-3,3H9c-1.657,0-3-1.343-3-3v-2.147c0-0.155-0.036-0.308-0.106-0.447 l-1.732-3.463C3.398,20.415,3,18.73,3,17.022V14c0-0.887,0.387-1.685,1-2.234c0-0.005,0-0.01,0-0.016V8c0-3.866,3.134-7,7-7h11 C25.866,1,29,4.134,29,8z M28,8c0-3.314-2.686-6-6-6H11C7.686,2,5,4.686,5,8v3.171C5.312,11.061,5.649,11,6,11h1 c1.657,0,3,1.343,3,3v2.153c3.99,1.446,8.353,1.407,12.32-0.12c0.277-0.104,0.583,0.046,0.662,0.336 c0.069,0.252-0.085,0.514-0.328,0.608c-4.3,1.647-9.033,1.644-13.333-0.009c-0.192-0.074-0.319-0.259-0.32-0.465L9,14.004 C8.999,12.897,8.102,12,6.994,12H6c-1.105,0-2,0.895-2,2v3.022c0,1.553,0.362,3.084,1.056,4.473l1.631,3.281 C6.893,25.191,7,25.648,7,26.111V28c0,1.105,0.895,2,2,2h14c1.105,0,2-0.895,2-2v-1.889c0-0.463,0.107-0.92,0.313-1.335l1.631-3.281 C27.639,20.106,28,18.575,28,17.022V8z"/> </g>
</svg>